<?xml version="1.0" encoding="utf-8"?>
<!-- Generator: Adobe Illustrator 25.2.0, SVG Export Plug-In . SVG Version: 6.00 Build 0)  -->
<svg version="1.1" id="Layer_1" xmlns="http://www.w3.org/2000/svg" xmlns:xlink="http://www.w3.org/1999/xlink" x="0px" y="0px"
	 viewBox="0 0 595.3 841.9" style="enable-background:new 0 0 595.3 841.9;" xml:space="preserve">
<style type="text/css">
	.st0{fill:#0A4950;}
	.st1{fill:#FFFFFF;}
</style>
<g>
	<path class="st0" d="M354.4,448.7c15.5,23.7,21.8,64.9,39.2,96.9c5.8,10.7,21.3,16,21.3,21.3c0,5.3-19.9,26.2-28.1,26.2
		c-8.7,0-41.7-11.1-47.5-27.6c-12.1-32.9-16-91.5-26.6-105.6l-30,5.8c-10.2,38.7-18.9,71.7-21.8,78.5c-7.7,18.4-38.3,48.9-43.6,48.9
		c-4.8,0-36.3-23.7-36.3-30c0-6.3,21.8-23.3,25.2-33.4c1.9-5.3,8.2-27.1,15.5-54.2c-7.3,0-20.3-22.3-20.3-28.1
		c0-3.4,1.9-5.8,7.3-6.8l23.3-3.9c10.7-38.3,20.8-76.5,24.2-90.1c4.4-16.5,23.7-45,29.1-45c9.7,0,42.6,19.4,42.6,25.7
		c0,3.9-12.1,22.3-16.5,35.4c-3.4,10.2-10.2,34.9-17.9,63c0,0,28.6-5.8,36.8-8.2c23.3-5.8,67.8-50.4,67.8-82.8
		c0-23.2-22.8-34.9-31.5-37.3c-13.6-3.4-40.2-5.3-63.9-5.3c-26.2,0-58.6,2.9-71.2,5.8c-14.1,3.9-35.4,29.1-35.4,41.7
		c0,11.1,16.5,42.1,16.5,48.9S194,407,186.3,407c-9.7,0-45-44.1-45-61c0-26.6,60.1-80.9,96.9-91.5c12.1-3.4,40.7-5.3,63.9-5.3
		c21.8,0,51.3,0.5,66.4,3.9c30.5,6.8,86.2,43.6,86.2,89.6C454.6,377.5,391.2,430.8,354.4,448.7z"/>
	<path class="st1" d="M354.4,448.7c15.5,23.7,21.8,64.9,39.2,96.9c5.8,10.7,21.3,16,21.3,21.3c0,5.3-19.9,26.2-28.1,26.2
		c-8.7,0-41.7-11.1-47.5-27.6c-12.1-32.9-16-91.5-26.6-105.6l-30,5.8c-10.2,38.7-18.9,71.7-21.8,78.5c-7.7,18.4-38.3,48.9-43.6,48.9
		c-4.8,0-36.3-23.7-36.3-30c0-6.3,21.8-23.3,25.2-33.4c1.9-5.3,8.2-27.1,15.5-54.2c-7.3,0-20.3-22.3-20.3-28.1
		c0-3.4,1.9-5.8,7.3-6.8l23.3-3.9c10.7-38.3,20.8-76.5,24.2-90.1c4.4-16.5,23.7-45,29.1-45c9.7,0,42.6,19.4,42.6,25.7
		c0,3.9-12.1,22.3-16.5,35.4c-3.4,10.2-10.2,34.9-17.9,63c0,0,28.6-5.8,36.8-8.2c23.3-5.8,67.8-50.4,67.8-82.8
		c0-23.2-22.8-34.9-31.5-37.3c-13.6-3.4-40.2-5.3-63.9-5.3c-26.2,0-58.6,2.9-71.2,5.8c-14.1,3.9-35.4,29.1-35.4,41.7
		c0,11.1,16.5,42.1,16.5,48.9S194,407,186.3,407c-9.7,0-45-44.1-45-61c0-26.6,60.1-80.9,96.9-91.5c12.1-3.4,40.7-5.3,63.9-5.3
		c21.8,0,51.3,0.5,66.4,3.9c30.5,6.8,86.2,43.6,86.2,89.6C454.6,377.5,391.2,430.8,354.4,448.7z"/>
</g>
</svg>
