<?xml version="1.0" encoding="utf-8"?>
<!-- Generator: Adobe Illustrator 25.2.0, SVG Export Plug-In . SVG Version: 6.00 Build 0)  -->
<svg version="1.1" id="Layer_1" xmlns="http://www.w3.org/2000/svg" xmlns:xlink="http://www.w3.org/1999/xlink" x="0px" y="0px"
	 viewBox="0 0 800 189.4" style="enable-background:new 0 0 800 189.4;" xml:space="preserve">
<style type="text/css">
	.st0{fill:#05484F;}
	.st1{fill:#166E7C;}
	.st2{fill:#2A9BB5;}
	.st3{fill:#68CCE7;}
	.st4{fill:#E7F0FA;}
</style>
<rect x="0" class="st0" width="800" height="189.4"/>
<path class="st1" d="M800,58.3c-3.1,0.9-16.5,5.6-22.7,3.2c-6.3-2.4-7.8,7.2-24.6,11.7s-35-7.9-42.6-11s-16.8,8.1-25.5,10.6
	c-8.6,2.5-26.4-6.9-35.2-11.3s-21.1,0.1-32.6-1.8s-12.8,3.9-15.5,4.4s-5.5-5.2-8.8-3.1c-3.3,2.1-8.5,2.9-12.2,0.4s-10.6-5-18.2-3.7
	s-28.3-0.8-33.8-2.3s-19.7,5.6-32,6c-12.4,0.4-15.2-4.8-30.6-13.3s-32.4-12.1-37-13.5c-4.7-1.4-3.1-2.1-6.5-4.1
	c-3.4-2.1-7.4-1-10.6-0.3s-18.5,5.9-26,6.6s-7.7-1.2-13.7-5.6s-10.3-7.5-13.2-8.5c-2.9-1-7.4-0.3-14,3.4s-38.3,12.7-51.5,14
	c-13.2,1.4-23.1,11.6-28.4,9.9c-5.3-1.7-2.8,0.5-9.2,4.3c-6.3,3.8-13.2,1.7-18.1,1.5s-7.2,5-12.4,6.4s-14.3-4.8-22.3-8.3
	c-8.1-3.5-12.9,0.8-17.3,1.8s-9.6-0.6-14.3-3.1s-8.9,2.5-13.6,1.9c-4.7-0.5-11.3,0-16.8,2.3s-8.5,1.6-11.3,0
	c-2.7-1.6-5.4-6.6-11.5-0.9S105.6,61,96.9,62s-13.4-4.2-18.5-5.8s-10.5,5.3-13.6,5.3c-3.1-0.1-4.7-1.8-6.2-2.5c-1.4-0.8-5,3.9-5,3.9
	S50.7,58.3,49,57c-1.7-1.3-8,5.8-12.9,10.9c-4.9,5-9.9,3.2-15.1,2.7s-3-2.6-7-4.2s-5.1-2.8-6.4-5.1s-1.5-4.7-7.8-3l0,131.1h800
	l0-131.1H800z"/>
<path class="st2" d="M800,88.5c0,0-4.9,0.7-8.4-0.3c-4.9-1.4-6.7-8.7-8.6-9.7c-1.9-1-2-4-6.1-3.8s-17.1-4.8-21.9-6.3
	c-4.7-1.5-17.4,7.1-20.3,9.8c-2.8,2.7-5.8-1.8-8.2-2.9s-7.6,7.7-12.1,6.7s-16.9,2.6-20.6,3.4c-3.7,0.8-8.7,3.5-12.9,7.3
	s-17.7,2.3-20.6,1.9c-2.9-0.4-5,1.7-11.5,3.5c-6.4,1.8-8.9-1.3-17.8-7.7c-8.9-6.4-5.9-2.7-11.4-1.5S604.7,86,604,84.6
	c-0.6-1.4-3.4-2.2-10.2-2.3c-6.8-0.1-30.4-11.8-32.9-12.8c-2.4-1-10.1,0.1-17.3,0.7s-18.8,7.1-23.5,9.7s-15.4-1.6-21.1-5.2
	c-5.7-3.5-25.6,6.5-32.5,8.6S453.1,83,452.2,81s-14.1-3.4-23.3-1.9c-9.2,1.4-13.5-4.3-19.2-8.9c-5.8-4.6-12.7-1-20.8-0.6
	c-8.1,0.4-13.6-0.5-23.9-6.6s-14.3-1.4-22.4,4s-32.8,4.8-41,4.1s-17.3,3.8-24.5,7.3S256.3,77,248,73.1s-16.7,2.2-28.9,5.9
	c-12.1,3.8-32.9,1.8-40,3.1c-7.1,1.3-25.1-0.2-27.3-3.1c-2.2-3-4.4-1.5-9.6-1.1c-5.1,0.4-19.3-10.4-22.3-12.2
	c-3-1.8-15.9-10.1-23-14.3c-7-4.2-11.3-0.4-15.2-0.9s-7.6-4.9-7.6-4.9s-3.6,5-5.3,8.5C67.1,57.6,58.2,68.2,55,69.5
	c-3.2,1.4-4.4,0.7-11.1,6.5s-11.6,5.2-18.5,4.6C18.7,79.9,11,85.8,6.7,87S0,88.5,0,88.5l0,100.9h800V88.5z"/>
<path class="st3" d="M800,124.7c-5.1-1.1-10.4-5.8-14.8-4.7c-4.5,1.2-6.8,5.9-21.5,5.9s-19.5-18.6-21.5-22.8
	c-1.5-3.2-9.1-4.2-18.9,3.2c-9.8,7.4-8.4-0.7-17.9-6.2s-7.5,4-15.6,7.2s-1.3,1-12.1-1.2s-3-2.7-23.2,6.5s-31.5,2.3-35.5-3.4
	c-4-5.7-18,4.4-23.1,3.3s-13-3.2-19.5,0.6c-6.5,3.8-7.9,2.2-16.6-1c-8.7-3.2-16,1.4-33.2,5.1c-17.2,3.6-29.3-5.1-35.1-10.6
	s-14.6-11.5-30.7-9.4s-14.4-3.9-26.8-5.4s-25.5,17.3-29.6,14.4s-4.6,0.8-18.1,3.2c-13.4,2.4-19.2-1.7-29.3-10.5
	c-10.1-8.8-15.5,0.3-24.3-6.8c-8.8-7.1-14.3-1.1-26.4-8.8s-12.1-1.7-29.1-7c-17-5.2-14.7-11.2-17.8-14.2c-3.1-2.9-11,4.1-15.2,6
	c-4.2,1.9,0.7,5.9-7.6,3.5s-35.9,9.2-52.7,23.8s-39,14.9-43.4,12.4c-4.5-2.4-15-1-18,0s-7.8,6.6-17.7,3.3s-6.2-1.6-20.5,1.5
	s-12,1.7-19-2.1c-7-3.8-13.6,3.6-18,3.7s-9.8,0.2-9.8,0.2c-8.2,2.2-6.7,5.6-11.9,8.7S8.8,126.8,0,124.8v64.5h800V124.7z"/>
<path class="st4" d="M800,119.9c0,0-3,2.9-6.9,5.5c-3.9,2.6-8.3,5.6-15.6,5.2c-7.3-0.4-14.7-4.1-19.5,0.1
	c-4.8,4.2-10.2,5.2-16.3,6.1c-6.1,0.9-9.1,9.4-11.3,7.8c-2.2-1.6-11.8-1.1-22.7,1.1c-10.9,2.2-21.3-9.5-28.4-14.1
	c-7.1-4.6-10.2,4.9-13.8,1.9s-3.8-2.5-7.8-2.1c-4,0.5-7.4,1.1-11.7-2.2s-10.5,1.5-17.2,1.1s-20.3-9-25.5-12.8s-9.8-3.8-13.7-1.2
	c-3.9,2.5-7.3,4-19.4-1c-12.1-4.9-19.4,1.2-25,6.7s-28.1,0.4-44-4.3c-15.9-4.8-9.4-13-32-3.5s-35.4,9.2-37.1,6s-2.7-3.1-5.7-3.4
	s-6.1,1.3-9.6-1.3c-3.4-2.7-8.4-6.1-13.1-5.9c-4.6,0.3-12.3-1.5-18.2-5.8c-5.9-4.2-19.3,9.4-30.9,14.3c-11.7,4.9-27.4-1.3-36.8,0
	s-38.2,15.2-48.6,19c-10.5,3.9-24.4,0-28.3-4.3c-3.9-4.3-12.3-0.3-15.2-1.2s-4.4-0.4-8.1,1.8c-3.7,2.2-4.2,4.1-14,0.2
	c-9.8-3.9-12.2-1.5-20.3,0.6s-14.5,0.4-21.4-4.7c-6.9-5.1-33.2-11.8-39.1-15.6c-5.9-3.8-16,4.8-19,1.3s-7.5-1.5-12.1,2.9
	s-15.5,4.1-22.5,9.6c-6.1,4.8-11.4,3.1-15.9,5.4l-0.6,0.4c-7.3,3.2-12.3-1.5-15.4-5.3c-3-3.8-10.4,3.5-19.4,0.5
	c-9-2.9-11.6-12-14.7-10.6c-0.9,0.4-2.1,0.8-3.1,1.7l0,69.6h800L800,119.9L800,119.9z"/>
</svg>
