<?xml version="1.0" encoding="utf-8"?>
<!-- Generator: Adobe Illustrator 25.2.0, SVG Export Plug-In . SVG Version: 6.00 Build 0)  -->
<svg version="1.1" id="Layer_1" xmlns="http://www.w3.org/2000/svg" xmlns:xlink="http://www.w3.org/1999/xlink" x="0px" y="0px"
	 viewBox="0 0 800 189.4" style="enable-background:new 0 0 800 189.4;" xml:space="preserve">
<style type="text/css">
	.st0{fill:#05484F;}
	.st1{fill:#0C5B63;}
	.st2{opacity:0.25;fill:#2A9BB5;}
</style>
<rect x="-0.2" y="0" class="st0" width="800" height="189.4"/>
<path class="st1" d="M799.8,58.3c-3.1,0.9-16.5,5.6-22.7,3.2c-6.3-2.4-7.8,7.2-24.6,11.7s-35-7.9-42.6-11s-16.8,8.1-25.5,10.6
	c-8.6,2.5-26.4-6.9-35.2-11.3s-21.1,0.1-32.6-1.8s-12.8,3.9-15.5,4.4s-5.5-5.2-8.8-3.1c-3.3,2.1-8.5,2.9-12.2,0.4s-10.6-5-18.2-3.7
	s-28.3-0.8-33.8-2.3s-19.7,5.6-32,6c-12.4,0.4-15.2-4.8-30.6-13.3s-32.4-12.1-37-13.5c-4.7-1.4-3.1-2.1-6.5-4.1
	c-3.4-2.1-7.4-1-10.6-0.3s-18.5,5.9-26,6.6s-7.7-1.2-13.7-5.6s-10.3-7.5-13.2-8.5c-2.9-1-7.4-0.3-14,3.4s-38.3,12.7-51.5,14
	c-13.2,1.4-23.1,11.6-28.4,9.9c-5.3-1.7-2.8,0.5-9.2,4.3c-6.3,3.8-13.2,1.7-18.1,1.5s-7.2,5-12.4,6.4s-14.3-4.8-22.3-8.3
	c-8.1-3.5-12.9,0.8-17.3,1.8s-9.6-0.6-14.3-3.1s-8.9,2.5-13.6,1.9c-4.7-0.5-11.3,0-16.8,2.3s-8.5,1.6-11.3,0
	c-2.7-1.6-5.4-6.6-11.5-0.9S105.4,61,96.7,62s-13.4-4.2-18.5-5.8s-10.5,5.3-13.6,5.3c-3.1-0.1-4.7-1.8-6.2-2.5c-1.4-0.8-5,3.9-5,3.9
	s-2.9-4.6-4.6-5.9s-8,5.8-12.9,10.9c-4.9,5-9.9,3.2-15.1,2.7s-3-2.6-7-4.2s-5.1-2.8-6.4-5.1s-1.5-4.7-7.8-3v131.1h800V58.3
	C799.6,58.3,799.8,58.3,799.8,58.3z"/>
<path class="st2" d="M799.8,88.5c0,0-4.9,0.7-8.4-0.3c-4.9-1.4-6.7-8.7-8.6-9.7c-1.9-1-2-4-6.1-3.8s-17.1-4.8-21.9-6.3
	c-4.7-1.5-17.4,7.1-20.3,9.8c-2.8,2.7-5.8-1.8-8.2-2.9s-7.6,7.7-12.1,6.7s-16.9,2.6-20.6,3.4c-3.7,0.8-8.7,3.5-12.9,7.3
	S663,95,660.1,94.6c-2.9-0.4-5,1.7-11.5,3.5c-6.4,1.8-8.9-1.3-17.8-7.7c-8.9-6.4-5.9-2.7-11.4-1.5s-14.9-2.9-15.6-4.3
	c-0.6-1.4-3.4-2.2-10.2-2.3c-6.8-0.1-30.4-11.8-32.9-12.8c-2.4-1-10.1,0.1-17.3,0.7s-18.8,7.1-23.5,9.7s-15.4-1.6-21.1-5.2
	c-5.7-3.5-25.6,6.5-32.5,8.6S452.9,83,452,81s-14.1-3.4-23.3-1.9c-9.2,1.4-13.5-4.3-19.2-8.9c-5.8-4.6-12.7-1-20.8-0.6
	c-8.1,0.4-13.6-0.5-23.9-6.6s-14.3-1.4-22.4,4s-32.8,4.8-41,4.1s-17.3,3.8-24.5,7.3s-20.8-1.4-29.1-5.3c-8.3-3.9-16.7,2.2-28.9,5.9
	c-12.1,3.8-32.9,1.8-40,3.1c-7.1,1.3-25.1-0.2-27.3-3.1c-2.2-3-4.4-1.5-9.6-1.1c-5.1,0.4-19.3-10.4-22.3-12.2
	c-3-1.8-15.9-10.1-23-14.3c-7-4.2-11.3-0.4-15.2-0.9s-7.6-4.9-7.6-4.9s-3.6,5-5.3,8.5C66.9,57.6,58,68.2,54.8,69.5
	c-3.2,1.4-4.4,0.7-11.1,6.5s-11.6,5.2-18.5,4.6c-6.7-0.7-14.4,5.2-18.7,6.4s-6.7,1.5-6.7,1.5v100.9h800V88.5z"/>
<path class="st1" d="M-0.2,111.4l9.8-12.7l7-2.9c0,0,3.7-5.9,4.9-4.5c1.2,1.4,2.4,4.1,3.2,4.4c0.8,0.3,6.8-0.9,6.8-0.9l3.7,1
	c0,0,1.8,2.6,3.8,1.4s6.8-6.1,6.8-6.1l1.7-2.9c0,0,2.8-0.2,4.9,1.7s4.2,3.8,4.2,3.8s3.5-4.8,4.5-4.5s4,1.4,5.4,1.2s4.5-1.8,4.5-1.8
	s6-1.5,6.5-0.5c0.5,1.1,0.9,2.8,1.7,2.8c0.8,0,2.8-1.7,2.8-1.7s2.8-2.6,4.5-1.8c1.7,0.8,5.1,5.2,7.8,5.1s11.7-1.4,16.8,0.2
	c5.1,1.5,13.7,7.5,20.3,7.7s8.6-5.1,11.2-5.5c2.6-0.5,7.8,2.4,7.8,2.4l4.5,3.1l4.5,2.3l1.2-2.5c0,0,2.5-0.6,3.8-0.2s3.7,2,5.7,1.2
	c2-0.8,9.1-4,9.1-4l6.2-6.9c0,0,3.4,2.5,5.2,2.3c1.8-0.2,3.2-4.3,5.7-5.2c2.5-0.9,11.2-1.3,11.2-1.3s12.6-9.3,13.2-10.7
	c0.6-1.4,2.9,0,2.9,0l6.6,3.7c0,0,0.8,1.5,1.7,2.5c0.9,0.9,5.8,4.5,5.8,4.5l0.9,2.7c0,0,6.8,5.2,9.1,5s5.4-1.1,5.4-1.1l2-3.9
	c0,0,5.2,0.7,7.4,3.2s5.7,3.4,5.7,3.4l7.5-4.3l5.7,4.3c0,0,5.5,7.5,8.2,6.6s7.5-2.6,7.5-2.6l6-6.5c0,0,14.2-9.4,17.4-10.6
	c3.2-1.2,8.9-3.7,8.9-3.7l10.8,4.9c0,0,2,2.5,2.8,2.7c0.8,0.2,10.3,2.7,12.8,0.7s6-5.8,6-5.8L365,82c0,0,11.5,5.5,12.3,6.7
	c0.8,1.2,6.9,2.8,6.9,2.8l7.1-1.1l5.5,2.5c0,0,10.3,16.7,14.4,17.9c4.1,1.2,9.2,4,9.2,4s4.1-1.9,4.7-2.5s21.7-4.5,21.7-4.5
	s14.2-12.8,14.8-13s8.4-9.8,8.4-9.8l5.1,1.1c0,0,8.2,1.8,10.5,3.9c2.3,2.1,1.8,3.6,6.8,4.9s15.4,1.1,15.4,1.1s3.1-2.3,6.8-1.1
	c3.7,1.3,22.8,21.2,26.5,21c3.7-0.2,11.9-3.5,16.6-4.5s14-6.1,16.2-7.4c2.2-1.3,10.3-6.7,10.3-6.7s6.6-4.2,11.3-4.2s9,4.9,12.7,4.2
	c3.7-0.7,9.6,0,9.6,0l6.4,2.8l3.5,4.1l11.3,10.7c0,0,7.8-1.5,10.1-1.3c2.3,0.2,2.3,1.6,4.7,1.3c2.5-0.3,7.8,0,7.8,0s6.4-8.3,9.6-7.9
	c3.2,0.5,5.1,2.2,6.8,0.9s6.9-4.3,6.9-4.3s2.8,1.2,4.3,2.5s10,8.8,10,8.8s5.1,2.9,8.2,2.1c3.1-0.8,2.6-3.1,7.5-0.8
	c4.9,2.3,9.1,6.9,11.2,6.5c2.2-0.5,14.8-3.2,15.8-3.4c1.1-0.2,10.8-0.2,10.8-0.2s6-6.2,9.7-6.3c3.7-0.2,6,2.5,7.5,1.4
	c1.5-1.1,9.7-4.9,14-4.8s10.8-2.2,10.8-2.2l5.7,4.2v69.4l-800.6,0V111.4z"/>
<path class="st0" d="M-0.2,137.6l1.5,1.3l2.5,1.1c0,0,0.9-0.8,1.9,0s3.5,1.3,3.5,1.3h3.1c0,0,1.8-2.2,3.1-2.6
	c1.2-0.4,4.4,0.9,5.2,0.7s5.2-0.5,5.8-0.7c0.6-0.2,0.6-1.7,1.6-1.2c1,0.5,2.4,0.2,2.9-0.1c0.5-0.3,3-3.4,3-3.4h1v0.8l1.2-0.1
	c0,0,1.5-0.5,2.8-1.4c1.2-0.9,1.8-2.2,3.1-2.3c1.2-0.1,2.4-0.1,3.5-0.9s4.3-0.8,5.7,0s3.2,2.3,4.4,1.9s2.9-2.8,4-2.6
	s2.1,1.3,2.4,1.2c0.3-0.1,1-1.2,1-1.2s1.5,0.1,3.9,0.4c2.4,0.3,9.1-0.2,9.8,0.1s0.7,1.2,3.5,1.1c2.8-0.1,3.7-0.7,4.1-0.1
	c0.4,0.6,1.4,1.1,1.8,0.7c0.4-0.4,1.8-0.8,3.2-0.9c1.3-0.1,1.3,0.6,3.2,0.3s3.8-0.6,4.2-1.2c0.4-0.6,1.3-1.5,2.3-1.5
	c0.9,0,2.9,0.4,3.7-0.8s3.9-4.7,5.9-4.6c2.1,0.1,4.5-1.1,4.7-1.6c0.2-0.5,1.3-0.5,1.9-0.5c0.6,0,2.3-2.2,2.4-2.8
	c0.1-0.6,7.6-7.5,10.6-9.5c3-2.1,7.9-5.4,9.3-5s4,1.8,5,2.3c1,0.5,2.7,1.8,2.7,1.8s1.1,0,2.3,0.6s4.6,4.5,5.9,4.7
	c1.3,0.2,4.2,0.1,4.7,1.2c0.5,1.1,2.3,3.6,3,4c0.7,0.4,2.2,0.5,2.3,1.7c0.1,1.2,1.1,2.4,2.8,3.5s3.7,2.5,6.5,2.6s3.3,2.3,4.9,2.2
	s7.3-6.4,9.5-6.5c2.3-0.1,6.7,3,7.1,3.6c0.4,0.6,2.2,1,3,2c0.8,1,2.3,2.8,4.2,2.3c1.9-0.5,8.9-0.9,9.8-1.6s1.1-1.9,3.9-1.6
	c2.8,0.3,6.6-0.5,8.3-1c1.7-0.5,6.6-3,10.1-2.9c3.5,0.2,2.9,2.1,4.9,0.5c2.1-1.6,4.4,0.4,5.1,0.9c0.7,0.5,1.1-0.2,3.2-1.4
	c2.1-1.2,1.4,0.3,2.8,1.4c1.3,1.1,5.5,0.1,5.5,0.1l2.1,1.4c0,0,0.9,0.8,2.1,0c1.1-0.8,1.1-1.5,1.8-1c0.7,0.5,1.9,1.6,4.5,1
	c2.6-0.6,3.5-2.9,3.5-2.9s0.4,1.3,1.4,1s2.3-2.6,3.9-2.2s1.4,2,2.8,1.2c1.3-0.9,6.5-5.4,8.3-5.6c1.8-0.2,6.1,0.2,7.3-0.9
	s2.8-6.1,5.8-6.3c3.1-0.2,5.2-1.5,5.2-1.5l5.9-0.2l1,0.9l1.1,0.5c0,0,3.3-3.2,4.2-5c0.9-1.8,1-3.5,1.3-3.8c0.3-0.3,2.5-0.7,2.5-0.7
	s2.9,0.2,4.4,0.8c1.5,0.6,2.9,2.5,4.4,2.3c1.5-0.2,6.9-1.4,7.3-1.7c0.4-0.3,5.8-1.5,6.6-2.5c0.7-0.9,3.2-4.1,4.9-4.1
	s4.7,0.8,8.8,3.6c4.1,2.8,10.3,10.9,10.3,10.9l0.5,1l2.7,1.4l2.1,4.1c0,0,0.1,2,2.7,1.7c2.6-0.3,6.8-0.5,7.5-1.6s4.4-4,6.3-4.5
	c1.8-0.5,5.2,0.2,7.9,0.3c2.7,0.1,5-1.3,7.3,0.1s10.2,10.8,11.7,14.9c1.5,4.1,3.9,6.3,7.8,5.6c3.9-0.6,7.4-2.6,8.3-3.6
	c0.9-1,1.3-1.3,1.3-1.3s6.7-0.9,7.6,0.2c0.9,1.1,8.2,6.1,12,6.6c3.8,0.5,10.8,2.7,10.8,2.7s2.8-3.7,3.9-3.8c1.1-0.1,4.8,1.8,4.8,1.8
	s2.7-3.4,3.8-1.9s9.1,6.8,9.6,6.8c0.5,0,11-0.2,11-0.2s13.6-1.1,17.5-2.8c3.9-1.6,13.7-9.8,15.8-9.8c2.1,0,10.1-2.3,11.5-3.5
	c1.4-1.2,6.2-1.2,6.2-1.2s5.9,1.6,10.1-0.2c4.1-1.8,9-3.8,9-3.8l1.4-2.3l1.8-2.7l3.1,1.2c0,0,2.5,4.5,3.3,4.9s4.9,1.8,4.9,1.8
	s6.4-1.2,10.9,0.9s4.5,4.2,4.5,4.2v2.7c0,0,6.2,2.3,7.4,1s2.3-5.7,5.1-7.9c2.9-2.2,9.2-5.2,10.3-7.3s-0.2-3.1,4.3-3.3
	c4.5-0.2,12.1,3.5,12.1,3.5s7.6-1.4,12.9,1.6c5.3,3.1,7.6,1.5,7.6,1.5s3.1,0.4,6.4,2c3.3,1.6,7.6,4.1,7.6,4.1l26.3,3.7l7,2.5
	c0,0,5.3,4.5,9.2,2.9c3.9-1.6,13.1-9.2,13.1-9.2l7.2-7.4l14.8-10.8c0,0,5.3-1.3,6.6,0s12.9,8.3,16.8,8.3c3.9,0,8.5,3.7,10.7,5.3
	s18.4,18.2,18.4,18.2l0,51.8l-799.9,0L-0.2,137.6z"/>
</svg>
