<?xml version="1.0" encoding="utf-8"?>
<!-- Generator: Adobe Illustrator 25.2.0, SVG Export Plug-In . SVG Version: 6.00 Build 0)  -->
<svg version="1.1" id="Layer_1" xmlns="http://www.w3.org/2000/svg" xmlns:xlink="http://www.w3.org/1999/xlink" x="0px" y="0px"
	 viewBox="0 0 250 160" style="enable-background:new 0 0 250 160;" xml:space="preserve">
<style type="text/css">
	.st0{fill:#05484F;}
	.st1{fill:#0C5B63;}
	.st2{opacity:0.25;fill:#2A9BB5;}
	.st3{fill:#043133;}
	.st4{fill:#FFFFFF;}
</style>
<rect x="-0.1" class="st0" width="673.7" height="160"/>
<path class="st1" d="M673.6,49.3c-2.6,0.8-13.9,4.7-19.1,2.7c-5.3-2-6.6,6.1-20.7,9.9c-14.1,3.8-29.5-6.7-35.9-9.3
	c-6.4-2.6-14.1,6.8-21.5,8.9c-7.2,2.1-22.2-5.8-29.6-9.5s-17.8,0.1-27.5-1.5c-9.7-1.6-10.8,3.3-13.1,3.7c-2.3,0.4-4.6-4.4-7.4-2.6
	c-2.8,1.8-7.2,2.4-10.3,0.3c-3.1-2.1-8.9-4.2-15.3-3.1c-6.4,1.1-23.8-0.7-28.5-1.9c-4.6-1.3-16.6,4.7-26.9,5.1
	c-10.4,0.3-12.8-4-25.8-11.2s-27.3-10.2-31.2-11.4c-4-1.2-2.6-1.8-5.5-3.5c-2.9-1.8-6.2-0.8-8.9-0.3c-2.7,0.6-15.6,5-21.9,5.6
	c-6.3,0.6-6.5-1-11.5-4.7c-5.1-3.7-8.7-6.3-11.1-7.2c-2.4-0.8-6.2-0.3-11.8,2.9c-5.6,3.1-32.3,10.7-43.4,11.8
	c-11.1,1.2-19.5,9.8-23.9,8.3c-4.5-1.4-2.4,0.4-7.7,3.6c-5.3,3.2-11.1,1.4-15.2,1.3c-4.1-0.2-6.1,4.2-10.4,5.4c-4.4,1.2-12-4-18.8-7
	c-6.8-2.9-10.9,0.7-14.6,1.5c-3.7,0.8-8.1-0.5-12-2.6c-4-2.1-7.5,2.1-11.5,1.6c-4-0.4-9.5,0-14.1,1.9c-4.6,1.9-7.2,1.3-9.5,0
	c-2.3-1.3-4.5-5.6-9.7-0.8s-10.4,4.3-17.8,5.1c-7.3,0.8-11.3-3.5-15.6-4.9c-4.3-1.3-8.8,4.5-11.5,4.5c-2.6-0.1-4-1.5-5.2-2.1
	C48,49.3,45,53.2,45,53.2s-2.4-3.9-3.9-5c-1.4-1.1-6.7,4.9-10.9,9.2c-4.1,4.2-8.3,2.7-12.7,2.3c-4.4-0.4-2.5-2.2-5.9-3.5
	c-3.4-1.3-4.3-2.4-5.4-4.3c-1.1-1.9-1.3-4-6.6-2.5v110.4h673.7V49.3C673.4,49.3,673.6,49.3,673.6,49.3z"/>
<path class="st2" d="M673.6,74.8c0,0-4.1,0.6-7.1-0.3c-4.1-1.2-5.6-7.3-7.2-8.2c-1.6-0.8-1.7-3.4-5.1-3.2c-3.5,0.2-14.4-4-18.4-5.3
	c-4-1.3-14.7,6-17.1,8.3c-2.4,2.3-4.9-1.5-6.9-2.4c-2-0.9-6.4,6.5-10.2,5.6c-3.8-0.8-14.2,2.2-17.3,2.9c-3.1,0.7-7.3,2.9-10.9,6.1
	s-14.9,1.9-17.3,1.6c-2.4-0.3-4.2,1.4-9.7,2.9c-5.4,1.5-7.5-1.1-15-6.5c-7.5-5.4-5-2.3-9.6-1.3c-4.6,1-12.5-2.4-13.1-3.6
	c-0.5-1.2-2.9-1.9-8.6-1.9c-5.7-0.1-25.6-9.9-27.7-10.8c-2-0.8-8.5,0.1-14.6,0.6c-6.1,0.5-15.8,6-19.8,8.2c-4,2.2-13-1.3-17.8-4.4
	c-4.8-2.9-21.6,5.5-27.4,7.2c-5.8,1.8-11.3-0.3-12-1.9c-0.8-1.7-11.9-2.9-19.6-1.6c-7.7,1.2-11.4-3.6-16.2-7.5
	c-4.9-3.9-10.7-0.8-17.5-0.5s-11.5-0.4-20.1-5.6c-8.7-5.1-12-1.2-18.9,3.4c-6.8,4.5-27.6,4-34.5,3.5c-6.9-0.6-14.6,3.2-20.6,6.1
	c-6.1,2.9-17.5-1.2-24.5-4.5c-7-3.3-14.1,1.9-24.3,5c-10.2,3.2-27.7,1.5-33.7,2.6c-6,1.1-21.1-0.2-23-2.6c-1.9-2.5-3.7-1.3-8.1-0.9
	c-4.3,0.3-16.3-8.8-18.8-10.3c-2.5-1.5-13.4-8.5-19.4-12c-5.9-3.5-9.5-0.3-12.8-0.8c-3.3-0.4-6.4-4.1-6.4-4.1s-3,4.2-4.5,7.2
	c-1.4,2.9-8.9,11.9-11.6,13c-2.7,1.2-3.7,0.6-9.3,5.5s-9.8,4.4-15.6,3.9c-5.6-0.6-12.1,4.4-15.7,5.4s-5.6,1.3-5.6,1.3v85h673.7V74.8
	z"/>
<path class="st1" d="M-0.1,94.1l8.3-10.7L14,81c0,0,3.1-5,4.1-3.8s2,3.4,2.7,3.7s5.7-0.8,5.7-0.8l3.1,0.8c0,0,1.6,2.2,3.2,1.2
	c1.7-1,5.7-5.1,5.7-5.1l1.4-2.5c0,0,2.3-0.1,4.1,1.4c1.8,1.6,3.5,3.2,3.5,3.2s3-4,3.8-3.8s3.4,1.2,4.5,1c1.2-0.1,3.8-1.6,3.8-1.6
	s5.1-1.3,5.4-0.4s0.8,2.3,1.4,2.3s2.3-1.4,2.3-1.4s2.3-2.2,3.8-1.6s4.3,4.4,6.6,4.3c2.3-0.1,9.8-1.2,14.1,0.1
	c4.3,1.3,11.5,6.3,17.1,6.5c5.6,0.1,7.3-4.3,9.5-4.7c2.2-0.4,6.6,2,6.6,2l3.8,2.6l3.8,1.9l1-2.1c0,0,2.1-0.5,3.2-0.1
	c1.2,0.4,3.1,1.7,4.8,1c1.7-0.6,7.6-3.4,7.6-3.4l5.2-5.8c0,0,2.9,2.1,4.4,1.9c1.6-0.1,2.7-3.6,4.8-4.4s9.5-1.1,9.5-1.1
	s10.6-7.8,11.1-9c0.5-1.2,2.5,0,2.5,0l5.6,3.1c0,0,0.6,1.3,1.4,2.1s4.9,3.8,4.9,3.8l0.8,2.2c0,0,5.7,4.3,7.6,4.2
	c1.9-0.1,4.5-0.9,4.5-0.9l1.7-3.3c0,0,4.4,0.6,6.2,2.7s4.8,2.9,4.8,2.9l6.3-3.6l4.8,3.6c0,0,4.7,6.3,6.9,5.6
	c2.2-0.8,6.3-2.2,6.3-2.2l5.1-5.4c0,0,11.9-7.9,14.6-8.9s7.5-3.1,7.5-3.1l9.1,4.1c0,0,1.7,2.1,2.3,2.3s8.7,2.2,10.8,0.6
	c2.1-1.7,5.1-4.9,5.1-4.9l2.9,0.9c0,0,9.7,4.7,10.4,5.6c0.6,1,5.8,2.4,5.8,2.4l6-0.9l4.7,2.1c0,0,8.7,14,12.1,15.1
	c3.5,1,7.8,3.3,7.8,3.3s3.5-1.6,4-2.1s18.3-3.8,18.3-3.8s11.9-10.8,12.4-10.9c0.5-0.1,7.1-8.3,7.1-8.3l4.3,0.9c0,0,6.9,1.5,8.8,3.2
	c1.9,1.7,1.6,3,5.7,4.1c4.1,1.1,13,0.9,13,0.9s2.6-2,5.7-0.9c3.1,1.1,19.2,17.8,22.3,17.7c3.1-0.2,10-2.9,14-3.8
	c4-0.9,11.8-5.1,13.6-6.2s8.6-5.6,8.6-5.6s5.5-3.5,9.5-3.5c4,0,7.6,4.2,10.7,3.5s8.1,0,8.1,0l5.4,2.3l2.9,3.5l9.5,9
	c0,0,6.6-1.3,8.5-1.1s1.9,1.3,4,1.1c2.1-0.2,6.6,0,6.6,0s5.4-7,8.1-6.6c2.7,0.4,4.3,1.8,5.7,0.8s5.8-3.6,5.8-3.6s2.3,1,3.6,2.1
	c1.3,1,8.4,7.4,8.4,7.4s4.3,2.4,6.9,1.8s2.2-2.6,6.3-0.6s7.6,5.8,9.5,5.4s12.4-2.7,13.3-2.9c0.9-0.1,9.1-0.1,9.1-0.1
	s5.1-5.2,8.2-5.3s5.1,2.1,6.3,1.2s8.2-4.1,11.8-4c3.6,0.1,9.1-1.8,9.1-1.8l4.8,3.5v58.4l-674.2,0V94.1z"/>
<path class="st3" d="M-0.1,116.4l1.3,1.1l2.1,1c0,0,0.8-0.7,1.6,0s2.9,1.1,2.9,1.1h2.6c0,0,1.6-1.8,2.6-2.2c1-0.3,3.7,0.8,4.4,0.6
	c0.7-0.2,4.4-0.4,4.9-0.6c0.5-0.2,0.5-1.5,1.4-1c0.9,0.4,2,0.2,2.4-0.1s2.5-2.8,2.5-2.8h0.9v0.7l1-0.1c0,0,1.3-0.4,2.3-1.2
	c1-0.8,1.6-1.8,2.6-1.9c1-0.1,2-0.1,2.9-0.8c1-0.7,3.6-0.7,4.8,0c1.2,0.7,2.7,1.9,3.7,1.6c1-0.3,2.4-2.3,3.4-2.2c1,0.2,1.7,1.1,2,1
	c0.3-0.1,0.9-1,0.9-1s1.3,0.1,3.3,0.4s7.7-0.2,8.3,0.1c0.6,0.3,0.6,1,2.9,1c2.3-0.1,3.1-0.6,3.5-0.1c0.3,0.5,1.2,1,1.6,0.6
	c0.3-0.3,1.6-0.7,2.7-0.8c1.1-0.1,1.1,0.5,2.7,0.3s3.2-0.5,3.5-1c0.3-0.5,1.1-1.3,1.9-1.3s2.4,0.3,3.1-0.7c0.7-1,3.3-4,5-3.9
	c1.7,0.1,3.8-1,4-1.4c0.2-0.4,1.1-0.4,1.6-0.4s1.9-1.8,2-2.3c0.1-0.5,6.4-6.3,8.9-8c2.5-1.7,6.7-4.6,7.9-4.2
	c1.2,0.3,3.4,1.5,4.2,1.9c0.9,0.4,2.2,1.6,2.2,1.6s1,0,1.9,0.5s3.9,3.8,5,4c1.1,0.2,3.5,0.1,4,1c0.4,1,1.9,3,2.5,3.4
	c0.6,0.3,1.8,0.4,1.9,1.5s1,2,2.3,2.9c1.4,1,3.1,2.1,5.4,2.2s2.8,1.9,4.1,1.8c1.4-0.1,6.1-5.4,8-5.4c1.9-0.1,5.6,2.6,6,3
	s1.8,0.8,2.5,1.7c0.7,0.9,1.9,2.3,3.5,1.9s7.5-0.8,8.3-1.4c0.8-0.6,1-1.6,3.3-1.4s5.5-0.4,7-0.8c1.5-0.5,5.5-2.6,8.5-2.4
	s2.4,1.8,4.1,0.4c1.7-1.4,3.7,0.3,4.3,0.8c0.6,0.4,1-0.2,2.7-1.2c1.7-1,1.2,0.2,2.3,1.2c1.1,1,4.7,0.1,4.7,0.1l1.7,1.1
	c0,0,0.8,0.7,1.7,0c1-0.7,1-1.2,1.6-0.8c0.6,0.4,1.6,1.3,3.8,0.8s2.9-2.4,2.9-2.4s0.3,1.1,1.2,0.8c0.9-0.3,1.9-2.2,3.3-1.8
	c1.4,0.3,1.2,1.7,2.3,1c1.1-0.7,5.4-4.5,7-4.7c1.6-0.2,5.1,0.2,6.1-0.8c1-1,2.3-5.1,4.9-5.3s4.4-1.3,4.4-1.3l5-0.2l0.9,0.8l1,0.4
	c0,0,2.8-2.7,3.5-4.2c0.8-1.6,0.9-2.9,1.1-3.2c0.3-0.3,2.1-0.6,2.1-0.6s2.4,0.2,3.7,0.7c1.3,0.5,2.4,2.1,3.7,1.9
	c1.3-0.2,5.8-1.2,6.1-1.4s4.9-1.3,5.5-2.1c0.6-0.8,2.7-3.5,4.1-3.5c1.5,0,4,0.7,7.4,3c3.5,2.3,8.6,9.2,8.6,9.2l0.4,0.9l2.2,1.2
	l1.7,3.5c0,0,0.1,1.7,2.2,1.4s5.7-0.4,6.3-1.4c0.6-1,3.7-3.4,5.3-3.8c1.6-0.4,4.4,0.2,6.7,0.3c2.2,0.1,4.2-1.1,6.1,0.1
	c1.9,1.2,8.6,9.1,9.8,12.5c1.3,3.5,3.3,5.3,6.6,4.8c3.3-0.5,6.2-2.2,7-3c0.8-0.9,1.1-1.1,1.1-1.1s5.6-0.8,6.4,0.2
	c0.8,1,6.9,5.1,10.1,5.5s9.1,2.2,9.1,2.2s2.3-3.1,3.3-3.2c1-0.1,4.1,1.6,4.1,1.6s2.2-2.9,3.2-1.6s7.7,5.7,8.1,5.7s9.2-0.2,9.2-0.2
	s11.5-1,14.8-2.3c3.3-1.4,11.6-8.3,13.3-8.3c1.7,0,8.5-1.9,9.7-2.9c1.2-1,5.2-1,5.2-1s5,1.4,8.5-0.2c3.5-1.6,7.6-3.2,7.6-3.2L478,98
	l1.6-2.2l2.6,1c0,0,2.1,3.8,2.8,4.1c0.7,0.3,4.1,1.6,4.1,1.6s5.4-1,9.2,0.8s3.8,3.5,3.8,3.5v2.2c0,0,5.2,1.9,6.2,0.9
	s1.9-4.8,4.3-6.7c2.4-1.8,7.8-4.4,8.6-6.1c0.9-1.7-0.2-2.6,3.6-2.8c3.8-0.2,10.2,2.9,10.2,2.9s6.4-1.2,10.9,1.4
	c4.5,2.6,6.4,1.3,6.4,1.3s2.6,0.3,5.4,1.7c2.8,1.4,6.4,3.5,6.4,3.5l22.1,3.1l5.9,2.1c0,0,4.5,3.8,7.8,2.4s11.1-7.8,11.1-7.8l6-6.2
	l12.4-9.1c0,0,4.5-1.1,5.5,0s10.9,7,14.2,7s7.1,3.1,9,4.4c1.9,1.3,15.5,15.3,15.5,15.3l0,43.6l-673.6,0L-0.1,116.4z"/>
<g>
	<path class="st4" d="M137.2,85.9c3.3,5.1,4.7,14,8.5,20.9c1.3,2.3,4.6,3.4,4.6,4.6c0,1.1-4.3,5.6-6.1,5.6c-1.9,0-9-2.4-10.2-5.9
		c-2.6-7.1-3.4-19.7-5.7-22.8l-6.5,1.3c-2.2,8.4-4.1,15.4-4.7,16.9c-1.7,4-8.2,10.5-9.4,10.5c-1,0-7.8-5.1-7.8-6.5
		c0-1.4,4.7-5,5.4-7.2c0.4-1.1,1.8-5.8,3.3-11.7c-1.6,0-4.4-4.8-4.4-6.1c0-0.7,0.4-1.3,1.6-1.5l5-0.8c2.3-8.2,4.5-16.5,5.2-19.4
		c0.9-3.5,5.1-9.7,6.3-9.7c2.1,0,9.2,4.2,9.2,5.5c0,0.8-2.6,4.8-3.6,7.6c-0.7,2.2-2.2,7.5-3.9,13.6c0,0,6.2-1.3,7.9-1.8
		c5-1.3,14.6-10.9,14.6-17.9c0-5-4.9-7.5-6.8-8c-2.9-0.7-8.7-1.1-13.8-1.1c-5.6,0-12.6,0.6-15.3,1.3c-3,0.8-7.6,6.3-7.6,9
		c0,2.4,3.6,9.1,3.6,10.5s-4,4.1-5.6,4.1c-2.1,0-9.7-9.5-9.7-13.2c0-5.7,12.9-17.4,20.9-19.7c2.6-0.7,8.8-1.1,13.8-1.1
		c4.7,0,11.1,0.1,14.3,0.8c6.6,1.5,18.6,9.4,18.6,19.3C158.8,70.6,145.1,82.1,137.2,85.9z"/>
	<path class="st4" d="M137.2,85.9c3.3,5.1,4.7,14,8.5,20.9c1.3,2.3,4.6,3.4,4.6,4.6c0,1.1-4.3,5.6-6.1,5.6c-1.9,0-9-2.4-10.2-5.9
		c-2.6-7.1-3.4-19.7-5.7-22.8l-6.5,1.3c-2.2,8.4-4.1,15.4-4.7,16.9c-1.7,4-8.2,10.5-9.4,10.5c-1,0-7.8-5.1-7.8-6.5
		c0-1.4,4.7-5,5.4-7.2c0.4-1.1,1.8-5.8,3.3-11.7c-1.6,0-4.4-4.8-4.4-6.1c0-0.7,0.4-1.3,1.6-1.5l5-0.8c2.3-8.2,4.5-16.5,5.2-19.4
		c0.9-3.5,5.1-9.7,6.3-9.7c2.1,0,9.2,4.2,9.2,5.5c0,0.8-2.6,4.8-3.6,7.6c-0.7,2.2-2.2,7.5-3.9,13.6c0,0,6.2-1.3,7.9-1.8
		c5-1.3,14.6-10.9,14.6-17.9c0-5-4.9-7.5-6.8-8c-2.9-0.7-8.7-1.1-13.8-1.1c-5.6,0-12.6,0.6-15.3,1.3c-3,0.8-7.6,6.3-7.6,9
		c0,2.4,3.6,9.1,3.6,10.5s-4,4.1-5.6,4.1c-2.1,0-9.7-9.5-9.7-13.2c0-5.7,12.9-17.4,20.9-19.7c2.6-0.7,8.8-1.1,13.8-1.1
		c4.7,0,11.1,0.1,14.3,0.8c6.6,1.5,18.6,9.4,18.6,19.3C158.8,70.6,145.1,82.1,137.2,85.9z"/>
</g>
</svg>
