<svg xmlns="http://www.w3.org/2000/svg" viewBox="0 0 93.31 46.79"><defs><style>.cls-1{fill:#05484f;}</style></defs><g id="Layer_2" data-name="Layer 2"><g id="Layer_1-2" data-name="Layer 1"><path class="cls-1" d="M20.38,19.08c1.48,2.27,2.09,6.21,3.75,9.27.56,1,2,1.53,2,2s-1.9,2.5-2.68,2.5-4-1.07-4.54-2.64c-1.16-3.15-1.53-8.76-2.55-10.1l-2.87.56c-1,3.7-1.81,6.85-2.09,7.5C10.7,30,7.78,32.89,7.27,32.89S3.8,30.62,3.8,30s2.08-2.23,2.41-3.2c.18-.51.78-2.59,1.48-5.19C7,21.63,5.74,19.5,5.74,19c0-.33.19-.56.7-.65l2.22-.37c1-3.66,2-7.32,2.32-8.62C11.39,7.74,13.25,5,13.76,5c.92,0,4.07,1.86,4.07,2.46,0,.37-1.15,2.13-1.57,3.38-.32,1-1,3.33-1.71,6,0,0,2.73-.55,3.52-.79,2.22-.55,6.48-4.81,6.48-7.92,0-2.22-2.18-3.33-3-3.56a30.27,30.27,0,0,0-6.11-.51,39.73,39.73,0,0,0-6.81.55c-1.35.37-3.39,2.78-3.39,4s1.58,4,1.58,4.67S5.05,15.1,4.31,15.1C3.38,15.1,0,10.89,0,9.26,0,6.72,5.74,1.53,9.26.51A29.76,29.76,0,0,1,15.38,0a37.68,37.68,0,0,1,6.35.37C24.64,1,30,4.54,30,8.94,30,12.27,23.9,17.37,20.38,19.08Zm69.5,8.34c-.56,2.18-1.11,4.5-1.72,6.72,2.78.23,4.82,1.3,4.82,1.9,0,.79-1.06,2.08-1.76,2.08S89.74,37,87.52,36.6a72.38,72.38,0,0,1-2.37,7.82c-.78,1.53-3.42,2.37-5.23,2.37-2.46,0-5.93-2.92-5.93-4.5C74,39,78.53,36,83,34.7c.88-3,1.66-5.89,1.66-5.89-1.76,2-3.79,4.08-5.56,4.08a7.65,7.65,0,0,1-5.79-3.61c-1.64,2.14-3.41,3.61-5.37,3.61S62.36,31,61.53,29.14c-1.72,2.17-3.48,3.75-5.15,3.75s-5.24-1.74-6.24-3.54c-1.62,2.11-3.35,3.54-5.3,3.54s-5.92-1.76-6.29-3.06c0,0-2.78,3.06-5.15,3.06-2.13,0-6-2.92-6-5.42,0-6.12,5.51-16.35,9.73-16.35a8.61,8.61,0,0,1,6.06,2.78c1.21,0,4,.32,4,1.48,0,1.62-3.15,9.31-3.15,13a1.63,1.63,0,0,0,1.25,1.29c1.29,0,3.54-3.07,5.67-6.85C52.72,15.78,56,4.42,57,1.16c.23-.7.6-1,1-1,.88,0,4,1.72,4,2.51a4.61,4.61,0,0,1-.19,1.15c-.46,1.49-6.67,22.38-6.67,24.56,0,.6,1,1.29,1.72,1.29,1.29,0,3.56-3.1,5.69-6.9,1.53-5.88,4.13-14.5,5.15-17.65.23-.69.6-1,1-1,.88,0,4,1.71,4,2.5a5.18,5.18,0,0,1-.18,1.16C72,9.31,66.67,26.22,66.67,28.4c0,.6,1.15,1.29,1.71,1.29,1.31,0,3.62-3.18,5.78-7,1-4,2.33-8.91,3-10.65.23-.65.6-.88,1-.88.88,0,3.94,1.62,3.94,2.45a4.29,4.29,0,0,1-.19,1.11c-.28,1.16-3.29,11.31-3.29,13.25a1.65,1.65,0,0,0,1.25,1.3c1.86,0,4.64-4.12,5.24-5.56,1.43-3.38,2.68-9.77,3.24-11.67a1,1,0,0,1,1-.88c.88,0,3.94,1.62,3.94,2.45a4.29,4.29,0,0,1-.19,1.11C92.8,15.84,91.64,20.15,89.88,27.42ZM41.37,16.17c0-.74-1.76-1.35-2.5-1.35-2.32,0-6,8.57-6,12.65a1.79,1.79,0,0,0,1.62,1.85c.93,0,3.24-1.62,4.54-4.31A38.63,38.63,0,0,0,41.37,16.17Zm40.82,21c-3,1.11-5.28,3.15-5.28,4.72a1.37,1.37,0,0,0,1.2,1.25,3.4,3.4,0,0,0,2.6-1.57C81,40.86,81.59,39.14,82.19,37.2Z"/></g></g></svg>